STARTFONT 2.3
FONT -FontForge-Henny Penny-Book-R-Normal--12-120-72-72-P-68-ISO10646-1
SIZE 12 72 72  4
FONTBOUNDINGBOX 17 22 -2 -8
COMMENT "Generated by fontforge, http://fontforge.sourceforge.net"
COMMENT "Copyright (c) 2012, Brownfox (gayaneh.b@gmail.com), with Reserved Font Name "Henny Penny""
STARTPROPERTIES 40
FOUNDRY "FontForge"
FAMILY_NAME "Henny Penny"
WEIGHT_NAME "Book"
SLANT "R"
SETWIDTH_NAME "Normal"
ADD_STYLE_NAME ""
PIXEL_SIZE 12
POINT_SIZE 120
RESOLUTION_X 72
RESOLUTION_Y 72
SPACING "P"
AVERAGE_WIDTH 68
CHARSET_REGISTRY "ISO10646"
CHARSET_ENCODING "1"
FONTNAME_REGISTRY ""
CHARSET_COLLECTIONS "ISO10646-1"
BITS_PER_PIXEL 4
FONT_NAME "HennyPenny-Regular"
FACE_NAME "Henny Penny"
COPYRIGHT "Copyright (c) 2012, Brownfox (gayaneh.b@gmail.com), with Reserved Font Name "Henny Penny""
FONT_VERSION "1.001"
FONT_ASCENT 10
FONT_DESCENT 2
UNDERLINE_POSITION -1
UNDERLINE_THICKNESS 1
X_HEIGHT 7
CAP_HEIGHT 9
RAW_ASCENT 799
RAW_DESCENT 200
NORM_SPACE 3
RELATIVE_WEIGHT 40
RELATIVE_SETWIDTH 50
SUPERSCRIPT_X 0
SUPERSCRIPT_Y 4
SUPERSCRIPT_SIZE 7
SUBSCRIPT_X 0
SUBSCRIPT_Y 0
SUBSCRIPT_SIZE 7
AVG_LOWERCASE_WIDTH 61
AVG_UPPERCASE_WIDTH 85
ENDPROPERTIES
CHARS 233
STARTCHAR space
ENCODING 32
SWIDTH 270 0
DWIDTH 3 0
BBX 1 1 0 0
BITMAP
00
ENDCHAR
STARTCHAR exclam
ENCODING 33
SWIDTH 249 0
DWIDTH 3 0
BBX 3 11 0 0
BITMAP
4E20
5F50
3F50
1F40
0E20
0C10
0A00
0800
0500
3E10
3E10
ENDCHAR
STARTCHAR quotedbl
ENCODING 34
SWIDTH 292 0
DWIDTH 4 0
BBX 3 4 0 6
BITMAP
56B0
56C0
2690
0450
ENDCHAR
STARTCHAR numbersign
ENCODING 35
SWIDTH 1030 0
DWIDTH 12 0
BBX 12 14 0 -4
BITMAP
000000300000
000000601000
000002425000
121007070000
13458A793454
000061810000
000081713400
167BAC642000
020B18000000
005663000000
00A190000000
005450000000
000900000000
000500000000
ENDCHAR
STARTCHAR dollar
ENCODING 36
SWIDTH 799 0
DWIDTH 10 0
BBX 8 14 1 -3
BITMAP
00000100
00002322
004DFDC0
00E86690
01FA6050
00AFA000
001CF600
0005CF20
04061E80
19050B90
6F833E50
33CFD700
00600000
00200000
ENDCHAR
STARTCHAR percent
ENCODING 37
SWIDTH 789 0
DWIDTH 9 0
BBX 10 11 0 0
BITMAP
09EC300420
4D17A02700
4E26908000
09EC272000
0000550000
0002800000
000906ED40
00722E24E0
03505B00F2
17004D25E0
610009ED40
ENDCHAR
STARTCHAR ampersand
ENCODING 38
SWIDTH 773 0
DWIDTH 9 0
BBX 9 12 0 -1
BITMAP
007ED10000
02B1940000
0560A10000
049A600000
02F9000A00
09F603CF00
3F8D231C00
8F0B900800
8F12E54300
4FA26F9030
06DFCAFA60
0000007D10
ENDCHAR
STARTCHAR quotesingle
ENCODING 39
SWIDTH 174 0
DWIDTH 2 0
BBX 2 4 0 5
BITMAP
56
57
26
04
ENDCHAR
STARTCHAR parenleft
ENCODING 40
SWIDTH 431 0
DWIDTH 5 0
BBX 6 17 0 -5
BITMAP
005000
036000
0A1000
2B0000
690000
A70000
B60000
C60000
C70000
B90000
8C0000
3F2000
0C7000
04E100
009700
001B30
000181
ENDCHAR
STARTCHAR parenright
ENCODING 41
SWIDTH 443 0
DWIDTH 5 0
BBX 6 12 0 -3
BITMAP
195000
01B800
002E50
0009C0
0005F1
0003F3
0003F1
0005D0
000A70
004C00
05B100
550000
ENDCHAR
STARTCHAR asterisk
ENCODING 42
SWIDTH 490 0
DWIDTH 6 0
BBX 6 5 0 6
BITMAP
008400
0056B2
4C8B40
018950
0441D1
ENDCHAR
STARTCHAR plus
ENCODING 43
SWIDTH 440 0
DWIDTH 5 0
BBX 5 7 0 1
BITMAP
003100
004100
005310
5FFD70
004300
002500
000400
ENDCHAR
STARTCHAR comma
ENCODING 44
SWIDTH 251 0
DWIDTH 3 0
BBX 3 4 0 -2
BITMAP
4E30
3E50
0820
1500
ENDCHAR
STARTCHAR hyphen
ENCODING 45
SWIDTH 436 0
DWIDTH 5 0
BBX 5 2 0 2
BITMAP
110110
3CFE60
ENDCHAR
STARTCHAR period
ENCODING 46
SWIDTH 238 0
DWIDTH 3 0
BBX 3 2 0 0
BITMAP
4E20
4E20
ENDCHAR
STARTCHAR slash
ENCODING 47
SWIDTH 690 0
DWIDTH 8 0
BBX 8 11 0 0
BITMAP
00000006
00000045
00000180
00000910
00006300
00037000
00190000
00820000
04400000
17000000
70000000
ENDCHAR
STARTCHAR zero
ENCODING 48
SWIDTH 723 0
DWIDTH 9 0
BBX 9 9 0 1
BITMAP
019EEC5000
1CA115E700
7D00006F20
B800001F60
C800000E80
BA00000E70
6F20003F30
0CD403C900
018DFD6000
ENDCHAR
STARTCHAR one
ENCODING 49
SWIDTH 505 0
DWIDTH 6 0
BBX 6 12 0 -2
BITMAP
005200
01D500
2CF700
B4BA00
006C00
004F00
002F30
001F60
001FC1
019FFC
0D9410
010000
ENDCHAR
STARTCHAR two
ENCODING 50
SWIDTH 534 0
DWIDTH 6 0
BBX 7 11 0 -1
BITMAP
08EE8000
6419F400
6002F700
4002F300
0006B000
001A1000
00610000
16000000
5EC61420
018FF900
0003D200
ENDCHAR
STARTCHAR three
ENCODING 51
SWIDTH 511 0
DWIDTH 6 0
BBX 7 11 0 -1
BITMAP
23000000
7FFEC000
67025000
40050000
00660000
001AC200
0000BC00
40006F10
80006F10
7712CB00
07DEB100
ENDCHAR
STARTCHAR four
ENCODING 52
SWIDTH 712 0
DWIDTH 9 0
BBX 9 12 0 -2
BITMAP
0000330000
0001D00000
0017F00000
0050E30000
0700C60000
A7009A0000
17B79D0100
0004BFB800
00001FA300
00000E9000
0000ADF600
0000002740
ENDCHAR
STARTCHAR five
ENCODING 53
SWIDTH 757 0
DWIDTH 9 0
BBX 9 11 0 -1
BITMAP
00006C4080
000179FE80
0005005D20
0018200000
0016CD3000
50000AE100
500004F500
600004F400
800009E100
69216F6000
06DFD50000
ENDCHAR
STARTCHAR six
ENCODING 54
SWIDTH 598 0
DWIDTH 7 0
BBX 8 9 0 0
BITMAP
019EEB20
1C710390
6E8EE900
BF812C80
CE0003E0
BC0001F1
7E0003E0
1DA22B70
02AED700
ENDCHAR
STARTCHAR seven
ENCODING 55
SWIDTH 507 0
DWIDTH 6 0
BBX 6 11 0 -1
BITMAP
210125
DFFFF8
9125C1
400050
000620
000900
006600
00D300
04F100
09E000
010000
ENDCHAR
STARTCHAR eight
ENCODING 56
SWIDTH 476 0
DWIDTH 6 0
BBX 6 10 0 0
BITMAP
08ED50
4F6180
7F4050
3FD620
07FF50
3938F3
A00098
B00069
A712B4
1BED60
ENDCHAR
STARTCHAR nine
ENCODING 57
SWIDTH 601 0
DWIDTH 7 0
BBX 8 9 0 0
BITMAP
07DFC400
7D218F40
C7000DC0
C8000AF1
7E413EF1
08DFCEE0
00000E90
0002AE20
3CEEA200
ENDCHAR
STARTCHAR colon
ENCODING 58
SWIDTH 246 0
DWIDTH 3 0
BBX 3 6 0 0
BITMAP
3E20
4E20
0000
0000
2E30
2E30
ENDCHAR
STARTCHAR semicolon
ENCODING 59
SWIDTH 266 0
DWIDTH 3 0
BBX 3 7 0 -2
BITMAP
1E60
1E60
0000
0000
3E50
1C40
1500
ENDCHAR
STARTCHAR less
ENCODING 60
SWIDTH 522 0
DWIDTH 6 0
BBX 6 6 0 1
BITMAP
000012
000470
027400
2C1000
028700
000394
ENDCHAR
STARTCHAR equal
ENCODING 61
SWIDTH 655 0
DWIDTH 8 0
BBX 8 3 0 2
BITMAP
0037ADE3
26542100
4FEDCB40
ENDCHAR
STARTCHAR greater
ENCODING 62
SWIDTH 533 0
DWIDTH 6 0
BBX 6 7 0 0
BITMAP
240000
037200
000670
000067
000660
018200
020000
ENDCHAR
STARTCHAR question
ENCODING 63
SWIDTH 564 0
DWIDTH 7 0
BBX 7 11 0 -1
BITMAP
06DEC500
4C21AF20
AA003F50
BF405F40
6E61DA00
002C7000
02710000
06000000
07C00000
00000000
03D00000
ENDCHAR
STARTCHAR at
ENCODING 64
SWIDTH 898 0
DWIDTH 11 0
BBX 11 12 0 -4
BITMAP
0005BEEB4000
009A4114C500
067000000A00
0807EECC0520
345E32DB0240
51A9008A0240
61B9008A0520
527E32CC1900
261AFE3BE400
0A1008D00000
03C403E00000
003CFD500000
ENDCHAR
STARTCHAR A
ENCODING 65
SWIDTH 784 0
DWIDTH 9 0
BBX 10 10 0 -1
BITMAP
00DEF40000
0005FA0000
00097E1000
00191F6000
00760CC000
00DDDEF200
069039F800
EF8000CE00
0380007F80
000008FFF8
ENDCHAR
STARTCHAR B
ENCODING 66
SWIDTH 685 0
DWIDTH 8 0
BBX 8 12 0 -2
BITMAP
479CEE60
06E12CE0
02F007E0
00F10880
00F35700
00EEDFB2
00F303EB
00F5008F
00F6008E
01FB13D9
06FFFE80
65100000
ENDCHAR
STARTCHAR C
ENCODING 67
SWIDTH 742 0
DWIDTH 9 0
BBX 9 12 0 -1
BITMAP
0000000400
0000000700
017DFEDE00
0BE5116E10
6F50000440
BF00000000
ED00000000
DE00000040
BF20000060
6FA0000260
0BF9214A10
006CEEA200
ENDCHAR
STARTCHAR D
ENCODING 68
SWIDTH 726 0
DWIDTH 9 0
BBX 9 11 0 -3
BITMAP
7ABCEEB200
1BE215EE10
05C0006F50
04D0002F80
03E0003F70
03F1007F30
04F704E800
07FFEB5000
1EB4000000
8400000000
1000000000
ENDCHAR
STARTCHAR E
ENCODING 69
SWIDTH 557 0
DWIDTH 7 0
BBX 7 12 0 -2
BITMAP
5447AE00
3FC10500
0CB00000
0AC00000
08C03000
06FE7000
04E15000
03F02000
02F10030
02F30280
AFFEDF80
00123510
ENDCHAR
STARTCHAR F
ENCODING 70
SWIDTH 533 0
DWIDTH 6 0
BBX 7 11 0 0
BITMAP
00148C90
7DF50570
08F20340
05F32200
03F46000
01FF8000
00E46000
00D43000
00C50000
02E70000
9EBD5000
ENDCHAR
STARTCHAR G
ENCODING 71
SWIDTH 750 0
DWIDTH 9 0
BBX 9 9 0 0
BITMAP
0000000060
018DFB2270
1CD4129E10
8F30002900
CD00014950
EC009EFE20
CF10008D00
4FB202CE00
04CEEA4300
ENDCHAR
STARTCHAR H
ENCODING 72
SWIDTH 743 0
DWIDTH 9 0
BBX 9 14 0 -3
BITMAP
3400000000
09FFC02580
06F22FFF40
05F000BC00
05F0008C00
05F0007B00
05F002AB00
05FEEDEB00
06F2007B00
06F0005B00
07F0006C00
08F10EFF90
9FF8010010
3102000000
ENDCHAR
STARTCHAR I
ENCODING 73
SWIDTH 438 0
DWIDTH 5 0
BBX 7 12 -1 -2
BITMAP
2DCCCED0
02AFB100
005F5000
005F2000
004F0000
004D0000
004C0000
004B0000
005A0000
006B0000
05EFF200
58310000
ENDCHAR
STARTCHAR J
ENCODING 74
SWIDTH 628 0
DWIDTH 8 0
BBX 9 14 0 -3
BITMAP
0000248D10
004FFFB200
0001CF3000
00006F1000
00004F1000
00003F1000
00003F0000
00003E0000
00005C0000
00007A0000
0000A60000
8E92E10000
B23C600000
6ED7000000
ENDCHAR
STARTCHAR K
ENCODING 75
SWIDTH 866 0
DWIDTH 10 0
BBX 11 12 0 -1
BITMAP
013706200000
DFF708FF9000
0BD006710000
09D047000000
07D3C0000000
06FDF2000000
05E2EB000530
04E06F700070
03E009F92380
04F1006CFC20
0EFC10000000
000420000000
ENDCHAR
STARTCHAR L
ENCODING 76
SWIDTH 660 0
DWIDTH 8 0
BBX 8 10 0 0
BITMAP
43100000
6DFEF500
01FE1000
00DC0000
00DA0000
00D80040
00D70051
00E80195
5DFFFFF9
24210000
ENDCHAR
STARTCHAR M
ENCODING 77
SWIDTH 1089 0
DWIDTH 13 0
BBX 14 10 0 -1
BITMAP
0000000002EF40
0098600008C200
004CE7001D9000
00086F4047C000
00070CD243F000
000604FC00F400
000500A500C900
0002001000AE30
D920000002EFF5
AE400000053100
ENDCHAR
STARTCHAR N
ENCODING 78
SWIDTH 799 0
DWIDTH 10 0
BBX 10 13 0 -4
BITMAP
0110000012
EFF700EFE6
07FF601A30
046EF50700
0435FE3600
03308FEA00
03300AFD00
033001CD00
0330001900
0430000000
0970000000
CFF7000000
0024000000
ENDCHAR
STARTCHAR O
ENCODING 79
SWIDTH 747 0
DWIDTH 9 0
BBX 9 9 0 0
BITMAP
019EFD7000
1D9216FC00
8D00007F70
D900001FC0
E900000DD0
CB00000DB0
8F20002F70
1DD413CC00
019DFD8100
ENDCHAR
STARTCHAR P
ENCODING 80
SWIDTH 623 0
DWIDTH 7 0
BBX 8 10 0 -1
BITMAP
DEFFFFA0
04EC14F5
00C800E6
00B806F3
00BEFD50
00C80000
00D80000
00E90000
02FB0000
3CFF9400
ENDCHAR
STARTCHAR Q
ENCODING 81
SWIDTH 804 0
DWIDTH 10 0
BBX 14 14 0 -5
BITMAP
006CFEA3000000
0AB314CF400000
5D10001DE10000
B9000006F50000
E7000002F70000
D8000000F60000
BD001CE6F40000
6F60623EC00000
0AF7715E900000
007DFD98F10000
00000003F70000
00000000ED0004
000000007F9135
0000000009EE90
ENDCHAR
STARTCHAR R
ENCODING 82
SWIDTH 869 0
DWIDTH 10 0
BBX 11 9 0 -1
BITMAP
EFFFFD700000
19F818F20000
02F304F20000
00F33CB00000
00DFFD000000
00C37F500040
01D60CF72170
8FFE307DEC30
000220000000
ENDCHAR
STARTCHAR S
ENCODING 83
SWIDTH 517 0
DWIDTH 6 0
BBX 8 12 -1 -1
BITMAP
00000020
0009E850
006D13B0
007B0050
002F4000
0006E200
00009D10
13000DA0
080006F2
0A3003F3
09A319E1
0408EC40
ENDCHAR
STARTCHAR T
ENCODING 84
SWIDTH 659 0
DWIDTH 8 0
BBX 9 12 0 -1
BITMAP
BFFFFFFF30
9400B51A30
5200C40410
1400D40000
0000E40000
0000E40000
0000F40000
0001F40000
0002F50000
0005FA1000
002DFFF600
00A7200000
ENDCHAR
STARTCHAR U
ENCODING 85
SWIDTH 690 0
DWIDTH 8 0
BBX 9 10 0 1
BITMAP
0000100000
136AE10000
EFFC100000
1BF54EDDB0
08F3019700
07F2003500
06F4002400
04F7004300
00CD22A000
002BED3000
ENDCHAR
STARTCHAR V
ENCODING 86
SWIDTH 798 0
DWIDTH 10 0
BBX 11 10 0 0
BITMAP
000382000000
CEFE50000140
03DE00026D40
003F60AFF400
000AD0048000
0003F6061000
0000CE160000
00005FD10000
00000D900000
000007300000
ENDCHAR
STARTCHAR W
ENCODING 87
SWIDTH 1120 0
DWIDTH 13 0
BBX 16 11 -1 -1
BITMAP
0000000000035200
000000000001BFFD
0001300000000D20
006D000000003600
16CF100600007000
002F504E60017000
000CC067E2061000
0007F911EB170000
0002F8009FC20000
0000A1002F900000
0000000009200000
ENDCHAR
STARTCHAR X
ENCODING 88
SWIDTH 868 0
DWIDTH 10 0
BBX 11 11 0 -1
BITMAP
001364000000
EFFFE3041000
028FE002E900
0006F7064000
0000AE560000
00002FF00000
000084E50000
003A105D0000
8FFC100B8000
013834FEF710
000000000220
ENDCHAR
STARTCHAR Y
ENCODING 89
SWIDTH 796 0
DWIDTH 10 0
BBX 11 13 0 -2
BITMAP
013620043000
CFF91006FF90
17F700026000
006F60160000
0008F8800000
0000CF300000
00004F000000
00003F000000
00003F100000
00005F200000
00019F400000
002FFFC10000
000002520000
ENDCHAR
STARTCHAR Z
ENCODING 90
SWIDTH 627 0
DWIDTH 8 0
BBX 8 11 0 -2
BITMAP
34101300
4FFFF800
5509F200
400CB000
001F5000
005E0000
00990030
00E40053
03D001B7
08D9BFFB
0A963101
ENDCHAR
STARTCHAR bracketleft
ENCODING 91
SWIDTH 344 0
DWIDTH 4 0
BBX 4 12 0 -2
BITMAP
0DB6
2F21
3E00
5C00
7B00
9A00
A900
B900
C900
D900
DC00
9EFA
ENDCHAR
STARTCHAR backslash
ENCODING 92
SWIDTH 347 0
DWIDTH 4 0
BBX 4 14 0 -2
BITMAP
1000
7000
6100
3400
0700
0700
0520
0160
0080
0071
0034
0007
0007
0003
ENDCHAR
STARTCHAR bracketright
ENCODING 93
SWIDTH 334 0
DWIDTH 4 0
BBX 4 12 0 -3
BITMAP
0030
3DF3
12F4
00F6
00F7
00E9
00DA
00DB
00CC
00ED
06C5
5400
ENDCHAR
STARTCHAR asciicircum
ENCODING 94
SWIDTH 658 0
DWIDTH 8 0
BBX 8 3 0 6
BITMAP
001C5000
05DBF920
5B303AE2
ENDCHAR
STARTCHAR underscore
ENCODING 95
SWIDTH 678 0
DWIDTH 8 0
BBX 8 2 0 -4
BITMAP
047ACDF6
24321100
ENDCHAR
STARTCHAR grave
ENCODING 96
SWIDTH 278 0
DWIDTH 3 0
BBX 3 2 0 9
BITMAP
4B00
0470
ENDCHAR
STARTCHAR a
ENCODING 97
SWIDTH 527 0
DWIDTH 6 0
BBX 7 9 0 -1
BITMAP
09EB1000
391C7000
1D47C000
0005E000
2BEFF200
A913F400
C705F700
5ED5CA50
00005E60
ENDCHAR
STARTCHAR b
ENCODING 98
SWIDTH 582 0
DWIDTH 7 0
BBX 8 14 -1 0
BITMAP
03900000
EFD00000
05D00000
02E00000
01E00000
00F00000
00F10000
00E20000
00E5CEB2
00D813E9
00D600AB
00CB12D8
03EFFEA1
1D731000
ENDCHAR
STARTCHAR c
ENCODING 99
SWIDTH 437 0
DWIDTH 5 0
BBX 5 7 0 1
BITMAP
05DE70
3A1DA0
A40000
C30060
B60060
6D3190
09ED40
ENDCHAR
STARTCHAR d
ENCODING 100
SWIDTH 523 0
DWIDTH 6 0
BBX 7 11 0 1
BITMAP
00028600
001DF600
0000E600
0000D600
0000D500
0000C500
1AEEE400
9D21C400
C900B400
AD21D600
2BFFDD60
ENDCHAR
STARTCHAR e
ENCODING 101
SWIDTH 434 0
DWIDTH 5 0
BBX 5 7 0 0
BITMAP
05DE60
3E33E0
AA06D0
CFFC40
BB0050
6F5190
08EE60
ENDCHAR
STARTCHAR f
ENCODING 102
SWIDTH 299 0
DWIDTH 4 0
BBX 7 16 -1 -2
BITMAP
0004DD30
001B2590
00563C90
00849E30
00C51100
5EFF9100
00D60000
00C50000
00C60000
00C60000
00C70000
00C80000
00C80000
00CB1000
05FFF100
08300000
ENDCHAR
STARTCHAR g
ENCODING 103
SWIDTH 567 0
DWIDTH 7 0
BBX 8 12 -1 -5
BITMAP
000006EC
01AEEB6D
07F42D60
07F32E60
01AFEA00
00920000
00D30000
005FEB50
05C227F4
1E6000B6
1FC214D1
05DFE920
ENDCHAR
STARTCHAR h
ENCODING 104
SWIDTH 566 0
DWIDTH 7 0
BBX 8 14 -1 -1
BITMAP
016A0000
2EFA0000
00780000
00770000
00760000
00850000
00A50000
00B40000
00C6DE40
00D91BB0
00F308C0
04F208C0
6FFD4EEB
00001100
ENDCHAR
STARTCHAR i
ENCODING 105
SWIDTH 301 0
DWIDTH 4 0
BBX 4 9 0 1
BITMAP
0A70
0000
CFB0
1D90
0C70
0C60
0C50
1E60
BEF6
ENDCHAR
STARTCHAR j
ENCODING 106
SWIDTH 367 0
DWIDTH 4 0
BBX 7 13 -2 -6
BITMAP
0002E100
00001200
005EFB00
0002EE00
00007F00
00003F20
00000F20
00000E20
00000E10
0BE20D00
4B504900
3812C300
09ED5000
ENDCHAR
STARTCHAR k
ENCODING 107
SWIDTH 567 0
DWIDTH 7 0
BBX 8 13 -1 -1
BITMAP
13A30000
BFF30000
00D30000
00C30000
00B40000
00B45200
00A57FD0
00A78400
00AEB013
00A8D817
00993CE5
00BC0000
2BCCE500
ENDCHAR
STARTCHAR l
ENCODING 108
SWIDTH 354 0
DWIDTH 4 0
BBX 6 12 -1 -1
BITMAP
002700
17E900
8AE900
00BA00
009B00
007B00
006C00
004D00
003E00
003F30
04FFF2
001010
ENDCHAR
STARTCHAR m
ENCODING 109
SWIDTH 708 0
DWIDTH 9 0
BBX 9 6 0 1
BITMAP
0320000000
3DAEB9F600
09A2F29B00
088BF68A00
6FE312CA00
0011000510
ENDCHAR
STARTCHAR n
ENCODING 110
SWIDTH 584 0
DWIDTH 7 0
BBX 7 8 0 -1
BITMAP
04200000
4E54EC10
1B832E60
06C00C70
03C00B60
01D01E40
1EFBFF30
01011570
ENDCHAR
STARTCHAR o
ENCODING 111
SWIDTH 503 0
DWIDTH 6 0
BBX 6 6 0 1
BITMAP
07DE90
5F32E7
AC008B
AD007A
5F61B6
07DE80
ENDCHAR
STARTCHAR p
ENCODING 112
SWIDTH 509 0
DWIDTH 6 0
BBX 6 12 0 -5
BITMAP
067000
9EADE5
08B19D
08706D
08A1A9
08EEB1
099000
099000
0AA000
0CC000
8FFA00
001300
ENDCHAR
STARTCHAR q
ENCODING 113
SWIDTH 505 0
DWIDTH 6 0
BBX 7 12 0 -5
BITMAP
00000100
3CEBE200
BB14D000
BB14D000
4DEBD000
0004D000
0004D000
0004D000
0005D000
0006D000
00CFF700
00015A10
ENDCHAR
STARTCHAR r
ENCODING 114
SWIDTH 414 0
DWIDTH 5 0
BBX 6 8 0 0
BITMAP
0007E5
BF564A
0CB0D6
09B000
08B000
07D000
08F200
7FFF20
ENDCHAR
STARTCHAR s
ENCODING 115
SWIDTH 482 0
DWIDTH 6 0
BBX 7 10 -1 -1
BITMAP
00000110
001BEA20
006B1900
003B0400
00079000
00108A00
00700C70
05A008B0
14732D90
0008EB10
ENDCHAR
STARTCHAR t
ENCODING 116
SWIDTH 434 0
DWIDTH 5 0
BBX 6 9 0 0
BITMAP
003700
02C400
9FFF60
0AD200
0D7000
1F4000
1F40D1
0EA1A0
04DE60
ENDCHAR
STARTCHAR u
ENCODING 117
SWIDTH 744 0
DWIDTH 9 0
BBX 9 6 0 0
BITMAP
05809FE000
AEB002F000
05E001F200
02F303E500
00EA18AFD0
004EE52210
ENDCHAR
STARTCHAR v
ENCODING 118
SWIDTH 600 0
DWIDTH 7 0
BBX 8 7 0 0
BITMAP
04A10000
4AF15EE1
02F60810
00AC0600
002F4400
000AD000
00028000
ENDCHAR
STARTCHAR w
ENCODING 119
SWIDTH 745 0
DWIDTH 9 0
BBX 9 7 0 0
BITMAP
15900018C0
DFB0450920
0CE09C0700
07F35F5400
02FA0AE100
00C9029000
0063000000
ENDCHAR
STARTCHAR x
ENCODING 120
SWIDTH 548 0
DWIDTH 7 0
BBX 7 8 0 0
BITMAP
016C0000
FFF41000
17F8CF80
00BFC200
002F3000
0268B100
5A65FF30
002B2000
ENDCHAR
STARTCHAR y
ENCODING 121
SWIDTH 659 0
DWIDTH 8 0
BBX 8 12 0 -5
BITMAP
14A80002
CFC18EFB
0F7008F3
0C8004F1
08C006F0
03F61AD0
007EC6A0
00000570
00000830
04E90B00
0622A500
04ED6000
ENDCHAR
STARTCHAR z
ENCODING 122
SWIDTH 460 0
DWIDTH 6 0
BBX 6 7 0 -1
BITMAP
9EEFA0
910B20
506900
01D200
0A8026
6FFFF7
320000
ENDCHAR
STARTCHAR braceleft
ENCODING 123
SWIDTH 460 0
DWIDTH 6 0
BBX 6 15 0 -4
BITMAP
003DD2
00B600
00D400
00C700
00AA00
00BB00
17F400
5A2000
01B000
00B500
00B800
00C800
00C800
00BC14
004ED2
ENDCHAR
STARTCHAR bar
ENCODING 124
SWIDTH 368 0
DWIDTH 4 0
BBX 2 12 1 -2
BITMAP
23
34
24
24
15
15
06
06
06
06
06
05
ENDCHAR
STARTCHAR braceright
ENCODING 125
SWIDTH 476 0
DWIDTH 6 0
BBX 6 13 0 -3
BITMAP
3DE500
71CD00
009F00
007F00
001E20
0001B3
0004B0
0003E0
0000E3
0000B6
0000A6
0003D2
009C40
ENDCHAR
STARTCHAR asciitilde
ENCODING 126
SWIDTH 733 0
DWIDTH 9 0
BBX 9 2 0 2
BITMAP
06ED721810
3415BED500
ENDCHAR
STARTCHAR nonbreakingspace
ENCODING 160
SWIDTH 270 0
DWIDTH 3 0
BBX 1 1 0 0
BITMAP
00
ENDCHAR
STARTCHAR exclamdown
ENCODING 161
SWIDTH 247 0
DWIDTH 3 0
BBX 3 12 0 -1
BITMAP
4E10
4E00
0400
0900
0C00
0D10
0F20
1F30
2F40
4F50
5F50
2E20
ENDCHAR
STARTCHAR cent
ENCODING 162
SWIDTH 799 0
DWIDTH 10 0
BBX 6 11 2 -2
BITMAP
010000
022000
06EE90
5E61B6
C741E5
F54100
E71400
9E3635
19DF80
000420
000160
ENDCHAR
STARTCHAR sterling
ENCODING 163
SWIDTH 799 0
DWIDTH 10 0
BBX 8 11 1 -1
BITMAP
003CE900
01D41D40
05D06F50
06E08D10
04F40000
26ED4000
008F3000
001F7000
000C7022
0BFF8124
1DF88EC1
ENDCHAR
STARTCHAR currency
ENCODING 164
SWIDTH 732 0
DWIDTH 9 0
BBX 8 9 0 0
BITMAP
00000110
10000910
19AEFE20
0A5114A0
09000080
0C301770
06FFD950
06700037
06000000
ENDCHAR
STARTCHAR yen
ENCODING 165
SWIDTH 799 0
DWIDTH 10 0
BBX 10 13 0 -2
BITMAP
0002500000
5FFF3014A2
03DF51FE40
002FC03400
0008F66000
0001EF5000
00009F2000
006EFFEFC0
0027AFEB00
00007E1000
00009F2000
0017FFF500
0059410000
ENDCHAR
STARTCHAR brokenbar
ENCODING 166
SWIDTH 341 0
DWIDTH 4 0
BBX 2 14 1 -3
BITMAP
23
24
34
34
24
00
11
24
24
24
24
24
34
33
ENDCHAR
STARTCHAR section
ENCODING 167
SWIDTH 546 0
DWIDTH 7 0
BBX 6 14 0 -4
BITMAP
01AEC3
08918C
0C608B
0AE300
07DF60
3A19F6
5C004D
2EB10A
04EE65
0019E1
000058
000008
02E626
01CEA0
ENDCHAR
STARTCHAR dieresis
ENCODING 168
SWIDTH 393 0
DWIDTH 5 0
BBX 3 1 1 8
BITMAP
A6C0
ENDCHAR
STARTCHAR copyright
ENCODING 169
SWIDTH 1023 0
DWIDTH 12 0
BBX 12 11 0 -2
BITMAP
0005BEED8200
00A941028D40
0760003002C1
1901AEE00057
3509A1800019
520B50140009
5209C2250037
2701AEA10083
0A20000004A0
02D820149C10
0018DFEB6000
ENDCHAR
STARTCHAR ordfeminine
ENCODING 170
SWIDTH 558 0
DWIDTH 7 0
BBX 7 6 0 4
BITMAP
0AE90000
5A1D3000
4D0A5000
09EF6000
3D1A9510
1DE6DC00
ENDCHAR
STARTCHAR guillemotleft
ENCODING 171
SWIDTH 608 0
DWIDTH 7 0
BBX 7 11 0 -3
BITMAP
00000020
00002150
00025530
001B0A00
02D55900
3EC0DC00
09F33F30
009C0880
000B5190
0001B040
00004200
ENDCHAR
STARTCHAR logicalnot
ENCODING 172
SWIDTH 616 0
DWIDTH 7 0
BBX 7 3 0 3
BITMAP
5FEDCCB0
00000090
00000060
ENDCHAR
STARTCHAR uni00AD
ENCODING 173
SWIDTH 436 0
DWIDTH 5 0
BBX 5 2 0 2
BITMAP
110110
3CFE60
ENDCHAR
STARTCHAR registered
ENCODING 174
SWIDTH 1048 0
DWIDTH 13 0
BBX 12 11 0 -3
BITMAP
0005BEFD9300
00AA41025B60
085CEFFA0073
1901D32F3007
5500B35E1005
6300BFE40005
4501E7E60505
2A2EDECDE507
096000100083
01BA41015B60
0006BEFDA300
ENDCHAR
STARTCHAR macron
ENCODING 175
SWIDTH 382 0
DWIDTH 5 0
BBX 4 1 0 9
BITMAP
3CED
ENDCHAR
STARTCHAR degree
ENCODING 176
SWIDTH 346 0
DWIDTH 4 0
BBX 4 3 0 9
BITMAP
1CD3
5537
2DD3
ENDCHAR
STARTCHAR plusminus
ENCODING 177
SWIDTH 580 0
DWIDTH 7 0
BBX 7 5 0 2
BITMAP
00050000
00090000
1FEECB30
00050000
4ECDB400
ENDCHAR
STARTCHAR twosuperior
ENCODING 178
SWIDTH 365 0
DWIDTH 4 0
BBX 4 7 0 4
BITMAP
06E6
035E
004D
00A4
4810
1AA6
0080
ENDCHAR
STARTCHAR threesuperior
ENCODING 179
SWIDTH 371 0
DWIDTH 4 0
BBX 5 7 0 4
BITMAP
001000
6FC000
225000
03BA00
400F20
724F10
2CE600
ENDCHAR
STARTCHAR acute
ENCODING 180
SWIDTH 234 0
DWIDTH 3 0
BBX 3 2 0 9
BITMAP
0910
3500
ENDCHAR
STARTCHAR mu
ENCODING 181
SWIDTH 634 0
DWIDTH 8 0
BBX 8 10 0 -4
BITMAP
79000100
7800B700
79008900
7D007B14
6F71BE16
6BBE6DE4
5C000000
5E000000
4F100000
3F300000
ENDCHAR
STARTCHAR paragraph
ENCODING 182
SWIDTH 707 0
DWIDTH 8 0
BBX 9 14 0 -4
BITMAP
0000026700
18CEFFB000
BFFD177000
EFFB066000
BFFB075000
19EB076000
006B086000
004B087000
003C088000
002D08A000
002E08E300
003F08FE60
02AF100000
2D95000000
ENDCHAR
STARTCHAR periodcentered
ENCODING 183
SWIDTH 238 0
DWIDTH 3 0
BBX 3 2 0 4
BITMAP
4E20
4E20
ENDCHAR
STARTCHAR cedilla
ENCODING 184
SWIDTH 332 0
DWIDTH 4 0
BBX 4 4 0 -3
BITMAP
0310
05A1
00B5
3EC1
ENDCHAR
STARTCHAR onesuperior
ENCODING 185
SWIDTH 336 0
DWIDTH 4 0
BBX 4 5 0 6
BITMAP
0090
14D0
00D0
5AF1
48BA
ENDCHAR
STARTCHAR ordmasculine
ENCODING 186
SWIDTH 503 0
DWIDTH 6 0
BBX 6 5 0 4
BITMAP
09ED80
6414D6
920059
6C3067
08EE91
ENDCHAR
STARTCHAR guillemotright
ENCODING 187
SWIDTH 778 0
DWIDTH 9 0
BBX 9 11 0 -3
BITMAP
0002100000
2000800000
2800490000
08A206B200
008FB66E60
0009C3DB20
005A1B9000
01B05B0000
0720B20000
0501900000
0002500000
ENDCHAR
STARTCHAR onequarter
ENCODING 188
SWIDTH 876 0
DWIDTH 11 0
BBX 11 12 0 -1
BITMAP
009000006000
14D000072000
00D000450000
5AF101800000
48BA09160000
0000631E0000
0003704D2100
0009011A6600
007109DFF800
04400218C100
0700005FFF30
000000120000
ENDCHAR
STARTCHAR onehalf
ENCODING 189
SWIDTH 762 0
DWIDTH 9 0
BBX 9 12 0 -1
BITMAP
0090000060
14D0000720
00D0004500
5AF1018000
48BA091000
000063AD20
0003731A90
0009000980
0071002B10
0440076010
070003C930
0000002600
ENDCHAR
STARTCHAR threequarters
ENCODING 190
SWIDTH 922 0
DWIDTH 11 0
BBX 11 12 0 -1
BITMAP
001000002400
6FC000008000
225000082000
03BA00550000
400F22816000
724F19179000
2CE67317A000
00036022C610
001802DEFF20
00710121F600
0340000CFFC0
000000021000
ENDCHAR
STARTCHAR questiondown
ENCODING 191
SWIDTH 571 0
DWIDTH 7 0
BBX 7 11 0 -2
BITMAP
002E7000
002E6000
00000000
00060000
00060000
00670000
09C2DD20
6F51CF90
AF400980
7FB11B30
08DFD500
ENDCHAR
STARTCHAR Agrave
ENCODING 192
SWIDTH 784 0
DWIDTH 9 0
BBX 10 13 0 -1
BITMAP
01C2000000
0029000000
0000000000
00DEF40000
0005FA0000
00097E1000
00191F6000
00760CC000
00DDDEF200
069039F800
EF8000CE00
0380007F80
000008FFF8
ENDCHAR
STARTCHAR Aacute
ENCODING 193
SWIDTH 784 0
DWIDTH 9 0
BBX 10 13 0 -1
BITMAP
0000740000
0001700000
0000000000
00DEF40000
0005FA0000
00097E1000
00191F6000
00760CC000
00DDDEF200
069039F800
EF8000CE00
0380007F80
000008FFF8
ENDCHAR
STARTCHAR Acircumflex
ENCODING 194
SWIDTH 784 0
DWIDTH 9 0
BBX 10 13 0 -1
BITMAP
0002C71000
00362AB000
0000000000
00DEF40000
0005FA0000
00097E1000
00191F6000
00760CC000
00DDDEF200
069039F800
EF8000CE00
0380007F80
000008FFF8
ENDCHAR
STARTCHAR Atilde
ENCODING 195
SWIDTH 784 0
DWIDTH 9 0
BBX 10 13 0 -1
BITMAP
005E700000
0043CE2000
0000000000
00DEF40000
0005FA0000
00097E1000
00191F6000
00760CC000
00DDDEF200
069039F800
EF8000CE00
0380007F80
000008FFF8
ENDCHAR
STARTCHAR Adieresis
ENCODING 196
SWIDTH 784 0
DWIDTH 9 0
BBX 10 13 0 -1
BITMAP
002E300000
002E3D2000
0000000000
00DEF40000
0005FA0000
00097E1000
00191F6000
00760CC000
00DDDEF200
069039F800
EF8000CE00
0380007F80
000008FFF8
ENDCHAR
STARTCHAR Aring
ENCODING 197
SWIDTH 784 0
DWIDTH 9 0
BBX 10 14 0 -1
BITMAP
0007E70000
000A180000
0008E70000
0000000000
00DEF40000
0005FA0000
00097E1000
00191F6000
00760CC000
00DDDEF200
069039F800
EF8000CE00
0380007F80
000008FFF8
ENDCHAR
STARTCHAR AE
ENCODING 198
SWIDTH 1172 0
DWIDTH 14 0
BBX 14 13 0 -2
BITMAP
00000000001400
000000136AEC00
00005FFFC64700
0000019D700100
0000006BA01200
00000439C18300
00000708FED300
00003509F21505
0000BFFFF5021A
0004A105F903CD
001B1004FE7510
03C60019600000
EEDE5031000000
ENDCHAR
STARTCHAR Ccedilla
ENCODING 199
SWIDTH 742 0
DWIDTH 9 0
BBX 9 16 0 -5
BITMAP
0000000400
0000000700
017DFEDE00
0BE5116E10
6F50000440
BF00000000
DD00000000
DE00000040
BF20000060
6FA0000260
0BF9214B10
007CFEA200
0000410000
00004C2000
00000B5000
0003ED1000
ENDCHAR
STARTCHAR Egrave
ENCODING 200
SWIDTH 557 0
DWIDTH 7 0
BBX 7 14 0 -2
BITMAP
0B300000
01910000
5447AE00
3FC10500
0CB00000
0AC00000
08C03000
06FE7000
04E15000
03F02000
02F10030
02F30280
AFFEDF80
00123510
ENDCHAR
STARTCHAR Eacute
ENCODING 201
SWIDTH 557 0
DWIDTH 7 0
BBX 7 14 0 -2
BITMAP
00038000
00081000
5447AE00
3FC10500
0CB00000
0AC00000
08C03000
06FE7000
04E15000
03F02000
02F10030
02F30280
AFFEDF80
00123510
ENDCHAR
STARTCHAR Ecircumflex
ENCODING 202
SWIDTH 557 0
DWIDTH 7 0
BBX 7 15 0 -2
BITMAP
003D6100
0363B900
00000000
5447AE00
3FC10500
0CB00000
0AC00000
08C03000
06FE7000
04E15000
03F02000
02F10030
02F30280
AFFEDF80
00123510
ENDCHAR
STARTCHAR Edieresis
ENCODING 203
SWIDTH 557 0
DWIDTH 7 0
BBX 7 14 0 -2
BITMAP
05E10000
05D3C000
5447AE00
3FC10500
0CB00000
0AC00000
08C03000
06FE7000
04E15000
03F02000
02F10030
02F30280
AFFEDF80
00123510
ENDCHAR
STARTCHAR Igrave
ENCODING 204
SWIDTH 438 0
DWIDTH 5 0
BBX 7 15 -1 -2
BITMAP
00B40000
00191000
00000000
2DCCCED0
02AFB100
005F5000
005F2000
004F0000
004D0000
004C0000
004B0000
005A0000
006B0000
05EFF200
58310000
ENDCHAR
STARTCHAR Iacute
ENCODING 205
SWIDTH 438 0
DWIDTH 5 0
BBX 7 15 -1 -2
BITMAP
00005600
00008000
00000000
2DCCCED0
02AFB100
005F5000
005F2000
004F0000
004D0000
004C0000
004B0000
005A0000
006B0000
05EFF200
58310000
ENDCHAR
STARTCHAR Icircumflex
ENCODING 206
SWIDTH 438 0
DWIDTH 5 0
BBX 7 15 -1 -2
BITMAP
0008B400
01636D40
00000000
2DCCCED0
02AFB100
005F5000
005F2000
004F0000
004D0000
004C0000
004B0000
005A0000
006B0000
05EFF200
58310000
ENDCHAR
STARTCHAR Idieresis
ENCODING 207
SWIDTH 438 0
DWIDTH 5 0
BBX 7 15 -1 -2
BITMAP
00C70000
00C6A500
00000000
2DCCCED0
02AFB100
005F5000
005F2000
004F0000
004D0000
004C0000
004B0000
005A0000
006B0000
05EFF200
58310000
ENDCHAR
STARTCHAR Eth
ENCODING 208
SWIDTH 730 0
DWIDTH 9 0
BBX 9 10 0 -3
BITMAP
5BCDFEA300
16F427FE30
01F3008FA0
01F4104FD0
7DFD305FC0
23F3009F60
03F617F900
09FFD93000
6830000000
2000000000
ENDCHAR
STARTCHAR Ntilde
ENCODING 209
SWIDTH 799 0
DWIDTH 10 0
BBX 10 16 0 -4
BITMAP
0000BC3000
000238E900
0000000000
0110000012
EFF700EFE6
07FF601A30
046EF50700
0435FE3600
03308FEA00
03300AFD00
033001CD00
0330001900
0430000000
0970000000
CFF7000000
0024000000
ENDCHAR
STARTCHAR Ograve
ENCODING 210
SWIDTH 747 0
DWIDTH 9 0
BBX 9 12 0 0
BITMAP
00A4000000
0019100000
0000000000
019EFD7000
1D9216FC00
8D00007F70
D900001FC0
E900000DD0
CB00000DB0
8F20002F70
1DD413CC00
019DFD8100
ENDCHAR
STARTCHAR Oacute
ENCODING 211
SWIDTH 747 0
DWIDTH 9 0
BBX 9 12 0 0
BITMAP
0000740000
0001700000
0000000000
019EFD7000
1D9216FC00
8D00007F70
D900001FC0
E900000DD0
CB00000DB0
8F20002F70
1DD413CC00
019DFD8100
ENDCHAR
STARTCHAR Ocircumflex
ENCODING 212
SWIDTH 747 0
DWIDTH 9 0
BBX 9 12 0 0
BITMAP
0006C50000
00545C6000
0000000000
019EFD7000
1D9216FC00
8D00007F70
D900001FC0
E900000DD0
CB00000DB0
8F20002F70
1DD413CC00
019DFD8100
ENDCHAR
STARTCHAR Otilde
ENCODING 213
SWIDTH 747 0
DWIDTH 9 0
BBX 9 12 0 0
BITMAP
002E910000
0042BE5000
0000000000
019EFD7000
1D9216FC00
8D00007F70
D900001FC0
E900000DD0
CB00000DB0
8F20002F70
1DD413CC00
019DFD8100
ENDCHAR
STARTCHAR Odieresis
ENCODING 214
SWIDTH 747 0
DWIDTH 9 0
BBX 9 12 0 0
BITMAP
004E100000
003E3D0000
0000000000
019EFD7000
1D9216FC00
8D00007F70
D900001FC0
E900000DD0
CB00000DB0
8F20002F70
1DD413CC00
019DFD8100
ENDCHAR
STARTCHAR multiply
ENCODING 215
SWIDTH 541 0
DWIDTH 7 0
BBX 6 7 0 0
BITMAP
000018
040081
028620
006A20
017061
090000
430000
ENDCHAR
STARTCHAR Oslash
ENCODING 216
SWIDTH 747 0
DWIDTH 9 0
BBX 9 12 0 -1
BITMAP
0000000020
0000000430
019EEC7700
1D9216FC00
8D0003BF70
D900181FC0
E901800DD0
CB08100DB0
8F82002F70
1DD413CC00
089DFD8100
3300000000
ENDCHAR
STARTCHAR Ugrave
ENCODING 217
SWIDTH 690 0
DWIDTH 8 0
BBX 9 12 0 1
BITMAP
0009600000
0000820000
0000100000
136AE10000
EFFC100000
1BF54EDDB0
08F3019700
07F2003500
06F4002400
04F7004300
00CD22A000
002BED3000
ENDCHAR
STARTCHAR Uacute
ENCODING 218
SWIDTH 690 0
DWIDTH 8 0
BBX 9 10 0 1
BITMAP
0000103700
136AE18100
EFFC100000
1BF54EDDB0
08F3019700
07F2003500
06F4002400
04F7004300
00CD22A000
002BED3000
ENDCHAR
STARTCHAR Ucircumflex
ENCODING 219
SWIDTH 690 0
DWIDTH 8 0
BBX 9 11 0 1
BITMAP
00008B4000
000656D400
136AE10000
EFFC100000
1BF54EDDB0
08F3019700
07F2003500
06F4002400
04F7004300
00CD22A000
002BED3000
ENDCHAR
STARTCHAR Udieresis
ENCODING 220
SWIDTH 690 0
DWIDTH 8 0
BBX 9 11 0 1
BITMAP
0008B00000
0008C69000
136AE10000
EFFC100000
1BF54EDDB0
08F3019700
07F2003500
06F4002400
04F7004300
00CD22A000
002BED3000
ENDCHAR
STARTCHAR Yacute
ENCODING 221
SWIDTH 796 0
DWIDTH 10 0
BBX 11 14 0 -2
BITMAP
000000370000
013620853000
CFF91006FF90
17F700026000
006F60160000
0008F8800000
0000CF300000
00004F000000
00003F000000
00003F100000
00005F200000
00019F400000
002FFFC10000
000002520000
ENDCHAR
STARTCHAR Thorn
ENCODING 222
SWIDTH 479 0
DWIDTH 6 0
BBX 6 13 0 -2
BITMAP
8FFA00
0A9000
08FFC4
0861BD
0851BD
09EFD4
096000
0A6000
0B6000
0B6000
1E9000
8FF500
101100
ENDCHAR
STARTCHAR germandbls
ENCODING 223
SWIDTH 591 0
DWIDTH 7 0
BBX 8 13 -1 -1
BITMAP
03DE6000
0A24F100
0A00D200
0A00A000
0C002000
0B4DEB30
08615EF3
06A002EA
03E0008D
01F4003D
00D9B759
02E98EB1
16000000
ENDCHAR
STARTCHAR agrave
ENCODING 224
SWIDTH 527 0
DWIDTH 6 0
BBX 7 11 0 -1
BITMAP
78000000
07400000
09EB1000
391C7000
1D47C000
0005E000
2BEFF200
A913F400
C705F700
5ED5CA50
00005E60
ENDCHAR
STARTCHAR aacute
ENCODING 225
SWIDTH 527 0
DWIDTH 6 0
BBX 7 12 0 -1
BITMAP
00092000
00360000
00000000
09EB1000
391C7000
1D47C000
0005E000
2BEFF200
A913F400
C705F700
5ED5CA50
00005E60
ENDCHAR
STARTCHAR acircumflex
ENCODING 226
SWIDTH 527 0
DWIDTH 6 0
BBX 7 12 0 -1
BITMAP
00AA3000
1637D200
00000000
09EB1000
391C7000
1D47C000
0005E000
2BEFF200
A913F400
C705F700
5ED5CA50
00005E60
ENDCHAR
STARTCHAR atilde
ENCODING 227
SWIDTH 527 0
DWIDTH 6 0
BBX 7 11 0 -1
BITMAP
06E60000
044DD100
09EB1000
391C7000
1D47C000
0005E000
2BEFF200
A913F400
C705F700
5ED5CA50
00005E60
ENDCHAR
STARTCHAR adieresis
ENCODING 228
SWIDTH 527 0
DWIDTH 6 0
BBX 7 11 0 -1
BITMAP
0A6C0000
00000000
09EB1000
391C7000
1D47C000
0005E000
2BEFF200
A913F400
C705F700
5ED5CA50
00005E60
ENDCHAR
STARTCHAR aring
ENCODING 229
SWIDTH 527 0
DWIDTH 6 0
BBX 7 12 0 -1
BITMAP
02DC1000
06454000
03DC1000
09EB1000
391C7000
1D47C000
0005E000
2BEFF200
A913F400
C705F700
5ED5CA50
00005E60
ENDCHAR
STARTCHAR ae
ENCODING 230
SWIDTH 700 0
DWIDTH 8 0
BBX 9 8 0 -1
BITMAP
00003CE600
2DC1616D00
748B02AA00
684FFEA100
08EF100310
882F600430
C33BE41900
6E91AFD400
ENDCHAR
STARTCHAR ccedilla
ENCODING 231
SWIDTH 437 0
DWIDTH 5 0
BBX 5 11 0 -3
BITMAP
05DE70
3A1DA0
A40000
C30060
B60060
6D3190
09ED40
006100
004D10
031C30
01DB00
ENDCHAR
STARTCHAR egrave
ENCODING 232
SWIDTH 434 0
DWIDTH 5 0
BBX 5 10 0 0
BITMAP
2C1000
038000
000000
05DE60
3E33E0
AA06D0
CFFC40
BB0050
6F5190
08EE60
ENDCHAR
STARTCHAR eacute
ENCODING 233
SWIDTH 434 0
DWIDTH 5 0
BBX 5 10 0 0
BITMAP
000910
003500
000000
05DE60
3E33E0
AA06D0
CFFC40
BB0050
6F5190
08EE60
ENDCHAR
STARTCHAR ecircumflex
ENCODING 234
SWIDTH 434 0
DWIDTH 5 0
BBX 6 10 0 0
BITMAP
01B920
1628E1
000000
05DE60
3E33E0
AA06D0
CFFC40
BB0050
6F5190
08EE60
ENDCHAR
STARTCHAR edieresis
ENCODING 235
SWIDTH 434 0
DWIDTH 5 0
BBX 5 9 0 0
BITMAP
05AB20
000000
05DE60
3E33E0
AA06D0
CFFC40
BB0050
6F5190
08EE60
ENDCHAR
STARTCHAR igrave
ENCODING 236
SWIDTH 301 0
DWIDTH 4 0
BBX 5 9 -1 1
BITMAP
4A0000
056000
000000
0CFA00
01D800
00C700
00C500
00D600
0BEF60
ENDCHAR
STARTCHAR iacute
ENCODING 237
SWIDTH 301 0
DWIDTH 4 0
BBX 4 9 0 1
BITMAP
01A0
0630
0000
CFA0
1D80
0C70
0C50
0D60
BEF6
ENDCHAR
STARTCHAR icircumflex
ENCODING 238
SWIDTH 301 0
DWIDTH 4 0
BBX 6 9 -1 1
BITMAP
00B920
1628E1
000000
0CFA00
01D800
00C700
00C500
00D600
0BEF60
ENDCHAR
STARTCHAR idieresis
ENCODING 239
SWIDTH 301 0
DWIDTH 4 0
BBX 4 8 0 1
BITMAP
5AB3
0000
CFA0
1D80
0C70
0C50
0D60
BEF6
ENDCHAR
STARTCHAR eth
ENCODING 240
SWIDTH 476 0
DWIDTH 6 0
BBX 7 10 -1 -1
BITMAP
00004000
1AED7000
8416C600
00202E00
00000D40
008EDE60
03E22D70
05D00770
02F61930
005DE800
ENDCHAR
STARTCHAR ntilde
ENCODING 241
SWIDTH 584 0
DWIDTH 7 0
BBX 7 11 0 -1
BITMAP
002E9100
0042AE50
00000000
04200000
4E54EC10
1B832E60
06C00C70
03C00B60
01D01E40
1EFBFF30
01011570
ENDCHAR
STARTCHAR ograve
ENCODING 242
SWIDTH 400 0
DWIDTH 5 0
BBX 8 9 0 2
BITMAP
0000007C
6900002D
06500008
00000045
00002780
3C7EC600
B90B4000
C72E9000
4DFB2000
ENDCHAR
STARTCHAR oacute
ENCODING 243
SWIDTH 400 0
DWIDTH 5 0
BBX 8 9 0 2
BITMAP
0000007C
0000002D
00091008
00350045
00002780
3C7EC600
B90B4000
C72E9000
4DFB2000
ENDCHAR
STARTCHAR ocircumflex
ENCODING 244
SWIDTH 400 0
DWIDTH 5 0
BBX 8 9 0 2
BITMAP
0000007C
0000002D
01C82008
2629D045
00002780
3C7EC600
B90B4000
C72E9000
4DFB2000
ENDCHAR
STARTCHAR otilde
ENCODING 245
SWIDTH 400 0
DWIDTH 5 0
BBX 8 9 0 2
BITMAP
0000007C
0000002D
07D50008
045DD045
00002780
3C7EC600
B90B4000
C72E9000
4DFB2000
ENDCHAR
STARTCHAR odieresis
ENCODING 246
SWIDTH 400 0
DWIDTH 5 0
BBX 8 9 0 2
BITMAP
0000007C
0000002D
078C1008
00000045
00002780
3C7EC600
B90B4000
C72E9000
4DFB2000
ENDCHAR
STARTCHAR divide
ENCODING 247
SWIDTH 592 0
DWIDTH 7 0
BBX 7 5 0 1
BITMAP
003C0000
00000100
5FEDDD60
00000000
003C0000
ENDCHAR
STARTCHAR oslash
ENCODING 248
SWIDTH 396 0
DWIDTH 5 0
BBX 5 7 0 0
BITMAP
005100
3CFB10
B68D70
CB3D60
4EEA00
070000
040000
ENDCHAR
STARTCHAR ugrave
ENCODING 249
SWIDTH 744 0
DWIDTH 9 0
BBX 9 9 0 0
BITMAP
004A000000
0005600000
0000000000
05809FE000
AEB002F000
05E001F200
02F303E500
00EA18AFD0
004EE52210
ENDCHAR
STARTCHAR uacute
ENCODING 250
SWIDTH 744 0
DWIDTH 9 0
BBX 9 9 0 0
BITMAP
0000830000
0002700000
0000000000
05809FE000
AEB002F000
05E001F200
02F303E500
00EA18AFD0
004EE52210
ENDCHAR
STARTCHAR ucircumflex
ENCODING 251
SWIDTH 744 0
DWIDTH 9 0
BBX 9 9 0 0
BITMAP
000B920000
01628E1000
0000000000
05809FE000
AEB002F000
05E001F200
02F303E500
00EA18AFD0
004EE52210
ENDCHAR
STARTCHAR udieresis
ENCODING 252
SWIDTH 744 0
DWIDTH 9 0
BBX 9 9 0 0
BITMAP
000D780000
0000000000
0000000000
05809FE000
AEB002F000
05E001F200
02F303E500
00EA18AFD0
004EE52210
ENDCHAR
STARTCHAR yacute
ENCODING 253
SWIDTH 659 0
DWIDTH 8 0
BBX 8 14 0 -5
BITMAP
00001A00
00006200
14A80002
CFC18EFB
0F7008F3
0C8004F1
08C006F0
03F61AD0
007EC6A0
00000570
00000830
04E90B00
0622A500
04ED6000
ENDCHAR
STARTCHAR thorn
ENCODING 254
SWIDTH 514 0
DWIDTH 6 0
BBX 7 18 -1 -8
BITMAP
00730000
8FB00000
07900000
06900000
04A00000
03DDE800
02E15F70
02D00CC0
01E00BE0
01F42EB0
01FAED30
01F30000
01F40000
01F50000
01F60000
01F70000
04FB1000
2FFFF000
ENDCHAR
STARTCHAR ydieresis
ENCODING 255
SWIDTH 659 0
DWIDTH 8 0
BBX 8 14 0 -5
BITMAP
00087D00
00000000
14A80002
CFC18EFB
0F7008F3
0C8004F1
08C006F0
03F61AD0
007EC6A0
00000570
00000830
04E90B00
0622A500
04ED6000
ENDCHAR
STARTCHAR dotlessi
ENCODING 305
SWIDTH 301 0
DWIDTH 4 0
BBX 4 6 0 1
BITMAP
CFA0
1D80
0C70
0C50
0D60
BEF6
ENDCHAR
STARTCHAR OE
ENCODING 338
SWIDTH 1132 0
DWIDTH 14 0
BBX 14 12 0 -2
BITMAP
00000000003A20
018DFC6AFFDD20
1CB314DCF20140
8E10002EF00000
CB000009F10200
DC000005F33600
CF100004FEB800
7F900008F40500
1CF9216CF60005
018DFD73F80277
00000019FFFFF8
00000077410010
ENDCHAR
STARTCHAR oe
ENCODING 339
SWIDTH 798 0
DWIDTH 10 0
BBX 10 5 0 1
BITMAP
1BEC33CE60
9819DD34B0
B700DFFD54
8E31CF6144
19ED48FE90
ENDCHAR
STARTCHAR circumflex
ENCODING 710
SWIDTH 483 0
DWIDTH 6 0
BBX 6 2 0 8
BITMAP
00AA30
1637D2
ENDCHAR
STARTCHAR caron
ENCODING 711
SWIDTH 428 0
DWIDTH 5 0
BBX 5 4 0 8
BITMAP
000010
240510
08A300
019000
ENDCHAR
STARTCHAR ring
ENCODING 730
SWIDTH 330 0
DWIDTH 4 0
BBX 4 3 0 10
BITMAP
1DD1
5445
2DD1
ENDCHAR
STARTCHAR tilde
ENCODING 732
SWIDTH 433 0
DWIDTH 5 0
BBX 5 2 0 9
BITMAP
1DA200
32AE60
ENDCHAR
STARTCHAR mu.dup1
ENCODING 956
SWIDTH 634 0
DWIDTH 8 0
BBX 8 10 0 -4
BITMAP
79000100
7800B700
79008900
7D007B14
6F71BE16
6BBE6DE4
5C000000
5E000000
4F100000
3F300000
ENDCHAR
STARTCHAR endash
ENCODING 8211
SWIDTH 436 0
DWIDTH 5 0
BBX 5 2 0 2
BITMAP
110110
3CFE60
ENDCHAR
STARTCHAR emdash
ENCODING 8212
SWIDTH 651 0
DWIDTH 8 0
BBX 8 2 0 2
BITMAP
0268BDE2
25432100
ENDCHAR
STARTCHAR quoteleft
ENCODING 8216
SWIDTH 287 0
DWIDTH 3 0
BBX 3 4 0 6
BITMAP
0540
2E10
5F70
3E60
ENDCHAR
STARTCHAR quoteright
ENCODING 8217
SWIDTH 291 0
DWIDTH 4 0
BBX 3 4 0 6
BITMAP
3E70
3ED0
02B0
0530
ENDCHAR
STARTCHAR quotesinglbase
ENCODING 8218
SWIDTH 272 0
DWIDTH 3 0
BBX 3 4 0 -2
BITMAP
3E60
2E90
0450
0500
ENDCHAR
STARTCHAR quotedblleft
ENCODING 8220
SWIDTH 445 0
DWIDTH 5 0
BBX 5 4 0 6
BITMAP
026520
1C0D30
5F4C90
3E6000
ENDCHAR
STARTCHAR quotedblright
ENCODING 8221
SWIDTH 444 0
DWIDTH 5 0
BBX 5 4 0 6
BITMAP
3E5D80
2E8DA0
065740
063500
ENDCHAR
STARTCHAR quotedblbase
ENCODING 8222
SWIDTH 482 0
DWIDTH 6 0
BBX 6 4 0 -3
BITMAP
3E88E1
3EC7F2
04A0B0
043620
ENDCHAR
STARTCHAR bullet
ENCODING 8226
SWIDTH 351 0
DWIDTH 4 0
BBX 4 3 0 3
BITMAP
1CE4
5FF8
2DE4
ENDCHAR
STARTCHAR guilsinglleft
ENCODING 8249
SWIDTH 465 0
DWIDTH 6 0
BBX 5 8 0 -1
BITMAP
000110
000700
005500
06C000
2ED100
01B900
000A40
000070
ENDCHAR
STARTCHAR guilsinglright
ENCODING 8250
SWIDTH 449 0
DWIDTH 5 0
BBX 5 8 0 -1
BITMAP
020000
081000
03B100
009E50
00CB20
06B000
0B1000
440000
ENDCHAR
STARTCHAR fraction
ENCODING 8260
SWIDTH 406 0
DWIDTH 5 0
BBX 9 11 -2 0
BITMAP
0000000510
0000002600
0000009000
0000082000
0000550000
0002800000
0009100000
0073000000
0360000000
1800000000
6100000000
ENDCHAR
STARTCHAR foursuperior
ENCODING 8308
SWIDTH 473 0
DWIDTH 6 0
BBX 6 8 0 3
BITMAP
005100
00D300
03B410
028770
7DFFB0
126D20
03EFF6
012000
ENDCHAR
STARTCHAR Euro
ENCODING 8364
SWIDTH 799 0
DWIDTH 10 0
BBX 10 11 0 -1
BITMAP
0000000002
0002AEEB48
002EC315F6
00BE100092
03F9041050
08F9530000
4AF9610000
9BF5000040
02F9000320
009F612900
0007EEB200
ENDCHAR
STARTCHAR minus
ENCODING 8722
SWIDTH 436 0
DWIDTH 5 0
BBX 5 2 0 2
BITMAP
110110
3CFE60
ENDCHAR
STARTCHAR f_f
ENCODING 64256
SWIDTH 467 0
DWIDTH 6 0
BBX 7 18 0 -4
BITMAP
006EA000
0269C000
0711BE90
090967F0
0A0C0DA0
0B1B0000
0C3B1100
5FEFC400
1D0D0000
0D1D1000
0C3A4000
0B579000
0A84E200
08A3FE30
07D87100
06F20000
08F90000
9EEFA000
ENDCHAR
STARTCHAR .notdef
ENCODING -1
SWIDTH 270 0
DWIDTH 3 0
BBX 3 7 0 0
BITMAP
8FC0
1010
1010
1010
1010
1010
8FC0
ENDCHAR
STARTCHAR .null
ENCODING -1
SWIDTH 0 0
DWIDTH 0 0
BBX 1 1 0 0
BITMAP
00
ENDCHAR
STARTCHAR nonmarkingreturn
ENCODING -1
SWIDTH 270 0
DWIDTH 3 0
BBX 1 1 0 0
BITMAP
00
ENDCHAR
STARTCHAR dieresis.case
ENCODING -1
SWIDTH 393 0
DWIDTH 5 0
BBX 4 2 0 9
BITMAP
4E10
3E3D
ENDCHAR
STARTCHAR o.cmp
ENCODING -1
SWIDTH 400 0
DWIDTH 5 0
BBX 8 9 0 2
BITMAP
0000007C
0000002D
00000008
00000045
00002780
3C7EC600
B90B4000
C72E9000
4DFB2000
ENDCHAR
STARTCHAR n_n
ENCODING -1
SWIDTH 1024 0
DWIDTH 12 0
BBX 13 8 0 -1
BITMAP
19200000000000
CF56EC4F900000
0A942E69ABE700
06C00C79C18D00
03C00B59909A00
01E01E6EDFFD10
1EFAFF72001410
01010280000000
ENDCHAR
STARTCHAR a_a
ENCODING -1
SWIDTH 911 0
DWIDTH 11 0
BBX 12 8 0 0
BITMAP
000002CE9000
00000981B600
2CE408A07900
844B1AEDCA00
780C7CD1AB00
3CFE7C62BB00
BA2E7CFA9D14
7FB4DD202CD1
ENDCHAR
STARTCHAR t_h
ENCODING -1
SWIDTH 854 0
DWIDTH 10 0
BBX 12 16 -1 -3
BITMAP
000015B00000
0005FFC00000
000007B00000
000164A00000
003C55900000
2CFFFFF60000
015E17800000
006C088BEC20
007B09C21BB0
006D0B76B6E0
002F8D55A6E0
0004BFEA17C0
00005FA10A90
0006FFFA3E70
00000006FFA0
0000000002A3
ENDCHAR
STARTCHAR s_s
ENCODING -1
SWIDTH 654 0
DWIDTH 8 0
BBX 9 11 -1 -2
BITMAP
0000010030
002DDBEE50
005A4E6440
001A195020
000393C000
04005A9800
09199E4F20
17795F1D80
004ED60E90
0006316F60
0001AED700
ENDCHAR
STARTCHAR t_t
ENCODING -1
SWIDTH 569 0
DWIDTH 7 0
BBX 7 10 0 -1
BITMAP
00688310
17CDF300
DFEF5000
0D7D2000
0D5D2000
0E4C4980
0D58B290
0B81BE60
04E36E00
006DE900
ENDCHAR
STARTCHAR e_e
ENCODING -1
SWIDTH 782 0
DWIDTH 9 0
BBX 10 7 0 0
BITMAP
1AE92BEB00
9A1BBA1940
D55AE40740
DFA1D51B00
7D417DC441
06CFEE8172
000003DE80
ENDCHAR
STARTCHAR o_o
ENCODING -1
SWIDTH 751 0
DWIDTH 9 0
BBX 13 10 0 1
BITMAP
00000000004E20
00000000001B30
00000000000710
00000000002800
07DD300026B100
6E31BC5DD81000
B800D707600000
B600E61BB00000
8B14DDFC300000
1AED3000000000
ENDCHAR
STARTCHAR l_l
ENCODING -1
SWIDTH 573 0
DWIDTH 7 0
BBX 8 12 -1 -2
BITMAP
03B5FF60
3BF22F60
02F20F60
01F20E60
01F30E60
01F30D70
01F30D80
01F40DA0
02F40CD1
03F54DED
8FF70000
025A3000
ENDCHAR
STARTCHAR z_z
ENCODING -1
SWIDTH 875 0
DWIDTH 11 0
BBX 12 8 -1 -1
BITMAP
0000EFFF2000
0000004B0000
03FFFB940000
0217D4D00000
001D4B706000
00983FFFF0D7
04C0000000B7
1DDEFFFFFE90
ENDCHAR
STARTCHAR j_j
ENCODING -1
SWIDTH 577 0
DWIDTH 7 0
BBX 9 17 -2 -8
BITMAP
000007D000
000008C000
0002E24200
00001DFA00
005EFCCE00
0002EE4F30
00007F1E50
00003F2A70
00000F2890
00000E25A0
00000E14A0
0BE20D03A0
4B50490390
3812C30470
09ED940730
0000BE2900
00004EC200
ENDCHAR
STARTCHAR f_b
ENCODING -1
SWIDTH 731 0
DWIDTH 9 0
BBX 10 16 -1 -2
BITMAP
0004DD3000
000B259000
00474D8000
00747B6000
00A47EC000
16E97CC000
59E504C000
00C603C000
00C603C000
00C703EDE4
00C703C1CB
00C804B1CA
00C80BFFE3
00CB130100
00DFD10000
0530000000
ENDCHAR
STARTCHAR f_k
ENCODING -1
SWIDTH 708 0
DWIDTH 9 0
BBX 9 15 0 -2
BITMAP
0001000000
004B000000
1CFFEA0000
014D4F2000
054D9D0000
0A2E000000
5F1E030000
1C0F06E600
0D0F3A1000
0D0FD50000
0E0E9B0320
1F1E5E6250
9F4F65DD10
04EFFF1000
0110010000
ENDCHAR
STARTCHAR f_h
ENCODING -1
SWIDTH 873 0
DWIDTH 10 0
BBX 12 16 -1 -2
BITMAP
0003DD300000
000A25900000
00266E820000
00644AC40000
00846FF30000
00BDB2E10000
3AF900D00000
35E500E00000
00C600E00000
00C601E6ED30
00C702E61D70
00C704E00C80
00C808C03FF6
00CAAFF42111
02EFD1220000
063100000000
ENDCHAR
ENDFONT
